<?xml version="1.0" encoding="UTF-8"?>
<svg width="28px" height="24px" viewBox="0 0 28 24" version="1.1" xmlns="http://www.w3.org/2000/svg" xmlns:xlink="http://www.w3.org/1999/xlink">
    <!-- Generator: Sketch 52.1 (67048) - http://www.bohemiancoding.com/sketch -->
    <title>Fill 3</title>
    <desc>Created with Sketch.</desc>
    <g id="A.-메인" stroke="none" stroke-width="1" fill="none" fill-rule="evenodd">
        <g id="01.상세_클래스" transform="translate(-311.000000, -644.000000)" fill="#FFFFFF" fill-rule="nonzero">
            <g id="BOTTOM" transform="translate(0.000000, 616.000000)">
                <g id="FLOATING" transform="translate(69.000000, 0.000000)">
                    <g id="TOK" transform="translate(224.000000, 0.000000)">
                        <g id="Group-2" transform="translate(7.000000, 13.000000)">
                            <path d="M24.9997231,17.9300474 C26.4014008,16.1191097 28.5801518,15 30.9587381,15 C35.1181319,15 38.5,18.3913622 38.5,22.5597453 L37.5,22.5597453 L38.5,22.5597453 C38.5,23.4422638 38.3477627,24.3064646 38.0537565,25.1228665 C37.7618735,25.9319548 37.3338705,26.6825483 36.791716,27.344851 L36.8111767,27.3827279 L36.2935748,27.8983462 L25.9455449,38.2067204 C25.6956805,38.4558839 25.3612301,38.5909091 25.0155721,38.5909091 C24.6690686,38.5909091 24.3340813,38.4546497 24.0877664,38.2071604 L14.1681553,28.3232782 C13.8657377,28.0663792 13.5846758,27.7862403 13.3267559,27.4851486 C12.715653,26.77427 12.2405359,25.9557001 11.9280153,25.0688733 C11.6457287,24.268171 11.5,23.4235637 11.5,22.5597453 C11.5,18.3909688 14.8814608,15 19.0420195,15 C21.4198519,15 23.5986035,16.1192955 24.9997231,17.9300474 Z M37.5,22.5597453 L36.5,22.5597453 C36.5,19.4946785 34.0123053,17 30.9587381,17 C28.7673303,17 26.8043571,18.2956735 25.9103478,20.2686546 L24.9990478,22.2797945 L24.0884899,20.2683185 C23.1956484,18.2959791 21.2325131,17 19.0420195,17 C15.9872894,17 13.5,19.4942831 13.5,22.5597453 C13.5,23.196114 13.6069432,23.8159303 13.8142711,24.4040134 C14.0440043,25.0559174 14.3934567,25.6579822 14.8445262,26.1827008 C15.0350804,26.4051491 15.2412539,26.6106456 15.5212469,26.8526057 L25.0163763,36.3093157 L34.6408859,26.7216889 L34.8782506,26.4831423 C35.4535812,25.9049467 35.8963232,25.2095406 36.1722456,24.4446951 C36.3881373,23.8452027 36.5,23.210195 36.5,22.5597453 L37.5,22.5597453 Z M34.8820788,26.4814203 L35.5878268,27.1898832 L34.6983595,27.646882 L34.3653022,26.9986449 L34.6408859,26.7216889 L34.8820788,26.4814203 Z" id="Fill-3"></path>
                        </g>
                    </g>
                </g>
            </g>
        </g>
    </g>
</svg>